<svg width="120" height="30" viewBox="0 0 120 30" fill="none" xmlns="http://www.w3.org/2000/svg">
<path d="M19.7368 23.3995V6.79034H30.4819V9.23426H22.7797V13.8848H29.008V16.2813H22.7797V23.3995H19.7368Z" fill="white"/>
<path d="M34.3992 9.80371C33.8445 9.80371 33.3849 9.63762 33.0204 9.30544C32.6717 8.97326 32.4974 8.55407 32.4974 8.04789C32.4974 7.54171 32.6717 7.13043 33.0204 6.81407C33.3849 6.48189 33.8445 6.3158 34.3992 6.3158C34.9539 6.3158 35.4055 6.48189 35.7542 6.81407C36.1187 7.13043 36.301 7.54171 36.301 8.04789C36.301 8.55407 36.1187 8.97326 35.7542 9.30544C35.4055 9.63762 34.9539 9.80371 34.3992 9.80371ZM32.8777 23.3995V11.6307H35.9206V23.3995H32.8777Z" fill="white"/>
<path d="M39.0966 23.3995V11.6307H41.7829L42.0206 13.6238C42.3851 12.9278 42.9081 12.3742 43.5896 11.9629C44.2869 11.5516 45.1031 11.346 46.0381 11.346C47.4962 11.346 48.6293 11.8047 49.4376 12.7222C50.2459 13.6396 50.65 14.9842 50.65 16.7558V23.3995H47.6071V17.0405C47.6071 16.0282 47.4011 15.2531 46.989 14.7153C46.577 14.1775 45.9351 13.9085 45.0635 13.9085C44.2077 13.9085 43.5024 14.2091 42.9477 14.8102C42.4089 15.4113 42.1395 16.2496 42.1395 17.3253V23.3995H39.0966Z" fill="white"/>
<path d="M57.6248 23.6842C56.6105 23.6842 55.7784 23.526 55.1287 23.2097C54.4789 22.8775 53.9955 22.4425 53.6785 21.9046C53.3616 21.3668 53.2031 20.7736 53.2031 20.1251C53.2031 19.0336 53.631 18.1478 54.4868 17.4676C55.3426 16.7875 56.6263 16.4474 58.3379 16.4474H61.3332V16.1626C61.3332 15.3559 61.1035 14.7627 60.6438 14.3831C60.1842 14.0035 59.6137 13.8136 58.9322 13.8136C58.3142 13.8136 57.7753 13.9639 57.3157 14.2645C56.8561 14.5492 56.5709 14.9763 56.4599 15.5457H53.4884C53.5676 14.6915 53.8529 13.9481 54.3442 13.3154C54.8513 12.6826 55.5011 12.2002 56.2935 11.868C57.0859 11.52 57.9734 11.346 58.956 11.346C60.6359 11.346 61.9593 11.7652 62.926 12.6035C63.8927 13.4419 64.3761 14.6283 64.3761 16.1626V23.3995H61.7849L61.4997 21.5013C61.151 22.134 60.6597 22.656 60.0258 23.0673C59.4077 23.4786 58.6073 23.6842 57.6248 23.6842ZM58.3142 21.3115C59.1858 21.3115 59.8594 21.0267 60.3348 20.4573C60.8261 19.8878 61.1351 19.1839 61.2619 18.3456H58.6707C57.8625 18.3456 57.284 18.4958 56.9354 18.7964C56.5867 19.0811 56.4124 19.437 56.4124 19.8641C56.4124 20.3228 56.5867 20.6787 56.9354 20.9318C57.284 21.1849 57.7436 21.3115 58.3142 21.3115Z" fill="white"/>
<path d="M67.2799 23.3995V11.6307H69.9661L70.2039 13.6238C70.5684 12.9278 71.0914 12.3742 71.7728 11.9629C72.4702 11.5516 73.2864 11.346 74.2214 11.346C75.6794 11.346 76.8126 11.8047 77.6208 12.7222C78.4291 13.6396 78.8332 14.9842 78.8332 16.7558V23.3995H75.7904V17.0405C75.7904 16.0282 75.5843 15.2531 75.1723 14.7153C74.7602 14.1775 74.1184 13.9085 73.2467 13.9085C72.3909 13.9085 71.6857 14.2091 71.131 14.8102C70.5921 15.4113 70.3227 16.2496 70.3227 17.3253V23.3995H67.2799Z" fill="white"/>
<path d="M87.5196 23.6842C86.3152 23.6842 85.2533 23.4232 84.3341 22.9012C83.4149 22.3792 82.6859 21.6516 82.1471 20.7183C81.6241 19.785 81.3626 18.7173 81.3626 17.5151C81.3626 16.3129 81.6241 15.2452 82.1471 14.3119C82.6859 13.3786 83.4149 12.651 84.3341 12.129C85.2533 11.607 86.3152 11.346 87.5196 11.346C89.0252 11.346 90.2931 11.7414 91.3232 12.5324C92.3533 13.3074 93.011 14.3831 93.2963 15.7593H90.087C89.9286 15.1898 89.6116 14.7469 89.1361 14.4305C88.6765 14.0984 88.1298 13.9323 87.4958 13.9323C86.6559 13.9323 85.9427 14.2486 85.3563 14.8814C84.77 15.5141 84.4768 16.392 84.4768 17.5151C84.4768 18.6382 84.77 19.5161 85.3563 20.1488C85.9427 20.7816 86.6559 21.0979 87.4958 21.0979C88.1298 21.0979 88.6765 20.9397 89.1361 20.6234C89.6116 20.307 89.9286 19.8562 90.087 19.2709H93.2963C93.011 20.5996 92.3533 21.6674 91.3232 22.4741C90.2931 23.2808 89.0252 23.6842 87.5196 23.6842Z" fill="white"/>
<path d="M101.726 23.6842C100.538 23.6842 99.4837 23.4311 98.5645 22.9249C97.6453 22.4187 96.9242 21.7069 96.4012 20.7895C95.8782 19.872 95.6167 18.8122 95.6167 17.61C95.6167 16.392 95.8703 15.3085 96.3774 14.3594C96.9004 13.4103 97.6136 12.6747 98.5169 12.1527C99.4361 11.6149 100.514 11.346 101.75 11.346C102.907 11.346 103.929 11.5991 104.817 12.1053C105.704 12.6114 106.394 13.3074 106.885 14.1933C107.392 15.0633 107.646 16.0361 107.646 17.1117C107.646 17.2857 107.638 17.4676 107.622 17.6575C107.622 17.8473 107.614 18.045 107.598 18.2506H98.6358C98.6992 19.1681 99.0162 19.8878 99.5867 20.4098C100.173 20.9318 100.878 21.1928 101.702 21.1928C102.321 21.1928 102.836 21.0584 103.248 20.7895C103.676 20.5047 103.993 20.1409 104.199 19.698H107.289C107.067 20.4415 106.695 21.1216 106.172 21.7386C105.664 22.3397 105.031 22.8142 104.27 23.1622C103.525 23.5102 102.677 23.6842 101.726 23.6842ZM101.75 13.8136C101.005 13.8136 100.347 14.0272 99.7769 14.4543C99.2063 14.8655 98.8418 15.4983 98.6833 16.3525H104.555C104.508 15.5774 104.222 14.9605 103.699 14.5017C103.176 14.043 102.527 13.8136 101.75 13.8136Z" fill="white"/>
<path d="M115.078 23.6842C114.032 23.6842 113.113 23.5181 112.321 23.1859C111.528 22.8379 110.894 22.3634 110.419 21.7623C109.943 21.1612 109.658 20.4652 109.563 19.6743H112.63C112.725 20.133 112.978 20.5285 113.39 20.8606C113.818 21.177 114.365 21.3352 115.031 21.3352C115.696 21.3352 116.18 21.2007 116.481 20.9318C116.798 20.6629 116.956 20.3545 116.956 20.0065C116.956 19.5003 116.734 19.1602 116.29 18.9862C115.847 18.7964 115.229 18.6145 114.436 18.4405C113.929 18.3297 113.414 18.1953 112.891 18.0371C112.368 17.8789 111.885 17.6812 111.441 17.4439C111.013 17.1908 110.664 16.8745 110.395 16.4948C110.126 16.0994 109.991 15.6169 109.991 15.0475C109.991 14.0035 110.403 13.1255 111.227 12.4137C112.067 11.7019 113.24 11.346 114.745 11.346C116.14 11.346 117.249 11.6703 118.073 12.3188C118.913 12.9674 119.413 13.8611 119.571 15H116.695C116.52 14.13 115.863 13.695 114.722 13.695C114.151 13.695 113.707 13.8057 113.39 14.0272C113.089 14.2486 112.939 14.5255 112.939 14.8576C112.939 15.2056 113.168 15.4825 113.628 15.6881C114.088 15.8937 114.698 16.0835 115.458 16.2575C116.283 16.4474 117.035 16.6609 117.717 16.8982C118.414 17.1196 118.969 17.4597 119.381 17.9185C119.793 18.3614 119.999 19.002 119.999 19.8404C120.015 20.568 119.825 21.2245 119.428 21.8097C119.032 22.395 118.462 22.8537 117.717 23.1859C116.972 23.5181 116.092 23.6842 115.078 23.6842Z" fill="white"/>
<path d="M0 0V18.1579L4.73684 22.8947V5.52631L0 0Z" fill="#28DF99"/>
<path d="M7.10547 11.0526V25.2631L11.8423 30V15.7895L7.10547 11.0526Z" fill="#EB5757"/>
</svg>
