<svg width="36" height="36" viewBox="0 0 36 36" fill="none" xmlns="http://www.w3.org/2000/svg">
<path d="M32.1838 15.231C32.3683 16.2195 32.4688 17.253 32.4688 18.3315C32.4688 26.7675 26.8228 32.766 18.2953 32.766C16.356 32.7666 14.4357 32.3851 12.6439 31.6432C10.8521 30.9014 9.22411 29.8137 7.85284 28.4425C6.48157 27.0712 5.39394 25.4432 4.65209 23.6514C3.91024 21.8597 3.52871 19.9393 3.5293 18C3.52871 16.0607 3.91024 14.1404 4.65209 12.3486C5.39394 10.5568 6.48157 8.92882 7.85284 7.55755C9.22411 6.18628 10.8521 5.09865 12.6439 4.3568C14.4357 3.61495 16.356 3.23342 18.2953 3.23401C22.2823 3.23401 25.6138 4.70101 28.1698 7.08301L24.0073 11.2455V11.235C22.4578 9.75901 20.4913 9.00151 18.2953 9.00151C13.4233 9.00151 9.4633 13.1175 9.4633 17.991C9.4633 22.863 13.4233 26.988 18.2953 26.988C22.7158 26.988 25.7248 24.4605 26.3428 20.9895H18.2953V15.231H32.1853H32.1838Z" fill="#F2F2F2"/>
</svg>
